<svg xmlns="http://www.w3.org/2000/svg" width="770" height="770" viewBox="0 0 770 770">
<style>
  .logo-dark { fill: rgb(10,10,10); }
  .logo-grey { fill: rgb(97,97,97); }
  .logo-white { fill: rgb(254,254,254); }
  @media (prefers-color-scheme: dark) {
    .logo-dark { fill: rgb(254,254,254); }
  }
</style>
<g>
<path d="M 426.42 318.25 L 425.77 323.00 L 417.05 323.00 C412.26,323.00 408.03,322.70 407.67,322.33 C406.46,321.13 407.01,313.64 408.95,304.87 C411.59,292.94 417.95,280.50 426.17,271.16 C431.60,265.00 432.67,263.25 431.88,261.78 C431.35,260.79 431.01,259.42 431.12,258.74 C431.23,258.06 431.02,256.71 430.66,255.75 C430.30,254.79 429.79,253.32 429.53,252.50 C428.86,250.34 427.25,250.56 411.58,254.90 C403.84,257.05 388.05,260.94 376.50,263.55 C349.05,269.75 318.45,277.24 287.50,285.33 C263.34,291.65 241.77,296.20 229.67,297.53 C225.85,297.94 224.00,298.56 224.29,299.33 C225.74,303.21 225.97,304.90 225.10,305.44 C224.57,305.77 223.52,303.89 222.78,301.27 L 221.43 296.50 L 227.46 295.37 C230.78,294.75 237.32,293.69 242.00,293.02 C251.53,291.66 270.44,287.28 285.51,282.95 C297.12,279.62 333.18,270.37 340.50,268.84 C346.86,267.51 348.33,267.19 372.95,261.62 C384.20,259.07 393.78,256.62 394.23,256.17 C395.06,255.34 391.42,238.11 390.13,236.76 C389.74,236.35 386.29,236.93 382.46,238.04 C371.67,241.16 340.86,248.93 327.00,252.02 C320.12,253.55 310.90,255.72 306.50,256.83 C293.03,260.24 206.20,276.34 195.00,277.50 C189.27,278.10 185.72,280.06 184.87,283.09 C184.32,285.08 184.18,284.85 184.10,281.77 C184.02,278.67 184.38,277.96 186.25,277.57 C187.49,277.31 191.43,276.43 195.00,275.62 C202.12,273.99 217.73,270.96 231.00,268.62 C258.45,263.79 263.98,262.80 268.50,261.92 C271.25,261.38 275.98,260.47 279.00,259.89 C284.48,258.84 289.18,257.85 297.25,256.05 C299.59,255.53 303.98,254.58 307.00,253.95 C316.37,252.00 368.93,239.00 379.90,235.92 C386.76,234.00 390.70,233.34 391.47,233.97 C392.10,234.50 393.70,239.49 395.01,245.05 C396.30,250.50 396.62,253.23 398.09,254.18 C399.48,255.08 401.88,254.42 407.07,252.97 C408.10,252.69 409.24,252.37 410.50,252.03 C423.88,248.41 431.11,246.78 431.60,247.27 C431.85,247.52 432.34,250.15 432.67,253.11 C433.00,256.08 433.79,259.51 434.41,260.74 L 435.54 262.97 L 442.00 259.00 C454.97,251.03 470.80,247.74 485.94,249.88 C499.71,251.83 509.67,255.90 522.89,264.97 C539.67,276.47 553.55,299.60 554.28,317.27 L 554.50 322.50 L 544.25 322.78 L 534.00 323.07 L 533.99 320.28 C533.95,311.94 527.79,298.42 520.15,289.92 C514.59,283.72 504.16,276.26 496.50,272.99 C476.37,264.40 456.68,268.35 441.56,284.01 C432.59,293.30 428.57,302.40 426.42,318.25 ZM 424.00 534.43 C397.69,538.43 378.90,536.59 358.90,528.04 C341.79,520.72 327.74,509.14 309.58,487.38 C295.08,470.02 273.72,438.95 275.24,437.42 C276.46,436.21 278.94,438.84 284.00,446.72 C296.18,465.66 304.55,476.93 316.49,490.45 C324.68,499.74 329.37,504.29 338.67,512.03 C342.39,515.12 347.00,516.21 356.71,516.27 C367.99,516.34 373.40,514.65 389.45,506.03 C394.60,503.26 399.10,501.00 399.46,501.00 C399.82,501.00 405.17,505.84 411.34,511.76 C422.60,522.56 431.02,529.00 433.86,529.00 C436.68,529.00 453.77,518.83 464.17,510.96 C474.71,502.98 482.67,495.77 522.49,458.13 C534.92,446.38 545.33,437.00 545.63,437.29 C546.87,438.53 542.91,442.82 520.31,464.69 C486.37,497.53 472.74,509.42 457.18,519.71 C442.41,529.47 435.02,532.75 424.00,534.43 ZM 376.90 402.55 C366.25,408.06 351.96,404.49 347.32,395.17 C345.88,392.26 345.50,389.12 345.50,380.00 C345.50,367.01 346.89,363.29 353.18,359.50 C358.23,356.46 373.14,356.69 378.33,359.89 C383.80,363.28 385.32,366.96 385.80,378.00 C386.41,392.02 383.90,398.93 376.90,402.55 ZM 412.58 401.70 C411.94,403.58 411.62,404.55 410.95,405.00 C410.25,405.48 409.16,405.39 406.90,405.20 L 406.75 405.19 L 403.00 404.88 L 403.00 358.00 L 416.94 358.00 C425.16,358.00 431.14,358.41 431.50,359.00 C431.84,359.55 432.81,360.00 433.65,360.00 C434.50,360.00 436.51,360.94 438.11,362.08 C448.99,369.82 447.03,389.71 434.75,396.21 C431.35,398.01 428.82,398.47 422.08,398.51 L 413.66 398.55 ZM 501.55 403.55 C499.01,406.08 495.61,406.67 493.00,405.02 C492.84,404.92 492.69,404.83 492.58,404.71 C491.56,403.67 492.67,400.54 503.64,369.75 L 503.73 369.50 L 507.64 358.50 L 514.32 358.20 C520.49,357.93 521.07,358.08 521.90,360.20 C522.40,361.47 526.22,371.73 530.38,383.00 C537.37,401.92 537.82,403.60 536.24,404.78 C535.14,405.61 534.40,405.70 534.18,405.03 C533.99,404.47 532.55,404.00 530.97,404.00 C529.32,404.00 527.56,403.22 526.81,402.14 C525.71,400.58 523.76,400.20 514.75,399.80 C508.84,399.54 504.00,399.72 504.00,400.21 C504.00,400.69 502.90,402.20 501.55,403.55 ZM 280.23 405.01 C278.73,405.02 276.57,405.28 275.43,405.58 C273.17,406.19 271.43,404.64 270.84,401.50 C270.50,399.68 269.63,399.49 260.98,399.39 C249.35,399.25 248.59,399.42 247.18,402.51 C246.17,404.72 245.60,404.93 241.82,404.46 C239.49,404.16 237.43,403.76 237.22,403.56 C236.70,403.04 238.11,398.60 244.04,382.00 C246.90,374.02 249.95,365.34 250.82,362.71 L 252.41 357.92 L 266.33 358.50 L 272.00 374.50 C275.12,383.30 278.86,393.76 280.32,397.75 L 282.96 405.00 ZM 315.05 368.00 L 314.50 404.50 L 309.75 404.80 L 305.00 405.11 L 305.00 368.08 L 297.25 367.79 L 289.50 367.50 L 289.20 362.75 L 288.89 358.00 L 330.00 358.00 L 330.00 368.00 ZM 370.50 593.52 C352.12,601.99 342.98,605.40 346.11,602.61 C346.87,601.93 353.12,598.74 360.00,595.53 C400.36,576.64 429.22,561.21 449.50,547.67 C479.76,527.46 528.03,487.05 524.86,484.57 C522.48,482.70 520.69,480.00 521.83,480.00 C522.42,480.00 524.08,481.55 525.52,483.44 C527.62,486.20 527.93,487.26 527.09,488.84 C524.78,493.14 485.41,525.82 462.29,542.62 C437.77,560.43 415.66,572.69 370.50,593.52 ZM 451.74 601.89 C451.00,602.13 450.31,602.35 449.68,602.55 C442.65,604.79 441.62,605.12 441.08,604.74 C440.94,604.65 440.83,604.50 440.66,604.33 C440.29,603.95 446.40,601.33 454.24,598.50 C471.79,592.16 482.64,587.35 495.02,580.40 C505.54,574.49 516.50,566.15 516.50,564.06 C516.50,561.45 511.26,558.72 505.04,558.10 C501.69,557.77 498.85,557.11 498.72,556.64 C498.60,556.16 501.44,554.59 505.04,553.14 C520.07,547.08 529.81,539.54 539.49,526.50 C546.60,516.92 555.27,500.08 558.97,488.66 C559.74,486.30 560.57,485.17 561.14,485.74 C563.66,488.26 551.15,516.93 542.84,527.71 C536.13,536.41 524.93,546.16 516.39,550.73 C512.05,553.05 509.15,554.97 509.95,554.98 C511.93,555.01 518.90,559.94 520.08,562.15 C522.99,567.59 496.88,585.03 470.42,595.32 C465.51,597.22 457.11,600.18 451.74,601.89 ZM 322.18 595.75 C326.06,599.74 328.71,603.00 328.08,603.00 C326.05,603.00 306.79,582.93 296.16,569.75 C273.84,542.05 253.88,510.90 237.70,478.50 C228.47,460.01 220.00,440.82 220.00,438.37 C220.00,434.57 222.57,438.52 227.90,450.52 C244.20,487.20 261.57,517.82 282.36,546.50 C289.81,556.78 306.66,577.87 311.24,582.65 C313.42,584.93 315.19,587.18 315.17,587.65 C315.14,588.12 318.30,591.76 322.18,595.75 ZM 362.28 395.31 C366.16,396.07 370.41,394.87 373.25,392.21 C375.84,389.77 376.00,389.13 376.00,380.90 C376.00,372.39 375.93,372.12 372.92,369.59 C368.63,365.97 361.00,365.91 357.45,369.45 C355.23,371.67 355.00,372.72 355.00,380.38 C355.00,387.98 355.26,389.15 357.53,391.86 C358.93,393.51 361.07,395.07 362.28,395.31 ZM 474.65 405.66 C473.89,406.43 465.10,406.98 464.67,406.28 C464.36,405.78 463.18,401.92 462.05,397.70 C458.62,384.89 459.41,369.80 464.05,359.75 C465.21,357.25 465.81,357.00 470.68,357.00 L 476.04 357.00 L 474.13 360.75 C468.23,372.33 467.52,384.02 471.93,397.00 C473.51,401.67 474.74,405.57 474.65,405.66 ZM 591.21 403.00 C589.71,406.08 588.99,406.54 585.25,406.81 C582.91,406.98 581.00,406.87 581.00,406.58 C581.00,406.28 582.17,402.55 583.60,398.29 C585.91,391.40 586.16,389.36 585.78,380.02 C585.45,371.59 584.84,368.26 582.75,363.25 L 580.14 357.00 L 590.72 357.00 L 593.03 364.25 C597.25,377.53 596.57,392.03 591.21,403.00 ZM 563.00 358.00 L 563.00 405.00 L 558.67 405.00 C556.28,405.00 554.03,404.70 553.67,404.33 C553.30,403.97 553.00,393.39 553.00,380.83 L 553.00 358.00 ZM 413.67 388.33 C414.03,388.70 417.59,389.00 421.56,389.00 C428.59,389.00 428.88,388.90 431.90,385.47 C435.83,380.98 436.09,375.87 432.59,371.50 C430.31,368.65 429.76,368.48 421.60,368.15 L 413.00 367.79 L 413.00 377.73 C413.00,383.20 413.30,387.97 413.67,388.33 ZM 492.60 209.06 C491.72,210.95 489.00,211.80 489.00,210.19 C489.00,209.75 491.59,206.29 494.75,202.51 C497.91,198.72 502.98,192.62 506.00,188.93 C532.03,157.25 537.40,151.00 538.61,151.00 C540.66,151.00 540.31,152.15 537.25,155.50 C535.74,157.16 530.90,163.01 526.51,168.50 C522.11,174.00 517.92,179.12 517.19,179.88 C516.47,180.65 512.64,185.15 508.69,189.88 C504.73,194.62 499.70,200.44 497.50,202.81 C495.30,205.18 493.09,208.00 492.60,209.06 ZM 520.19 229.90 C517.50,231.34 516.95,231.29 517.58,229.65 C518.24,227.94 519.98,226.67 540.00,213.31 C560.12,199.89 582.81,186.82 585.31,187.21 C586.46,187.39 582.70,190.09 575.33,194.38 C561.84,202.23 546.82,211.55 539.50,216.61 C536.75,218.50 533.65,220.61 532.60,221.28 C531.56,221.95 528.80,223.92 526.48,225.65 C524.15,227.38 521.32,229.29 520.19,229.90 ZM 509.25 389.34 C511.02,390.05 520.55,390.12 521.25,389.42 C521.82,388.85 517.75,376.26 515.82,372.66 C514.34,369.90 512.62,372.07 510.08,379.92 C507.66,387.37 507.55,388.65 509.25,389.34 ZM 253.39 388.58 C254.13,390.50 264.84,390.58 265.57,388.67 C266.37,386.59 260.56,371.50 258.96,371.50 C257.36,371.50 252.53,386.33 253.39,388.58 ZM 189.62 308.29 C190.76,316.88 190.99,321.41 190.31,322.09 C189.63,322.77 188.61,318.08 187.20,307.80 C185.96,298.79 185.47,292.13 185.99,291.61 C187.11,290.49 187.47,292.15 189.62,308.29 ZM 568.50 253.92 C561.35,255.12 554.54,256.33 553.36,256.63 C552.18,256.92 550.95,256.73 550.63,256.21 C550.30,255.68 551.49,254.98 553.27,254.65 C555.05,254.31 559.65,253.40 563.50,252.63 C573.75,250.57 583.70,249.60 582.50,250.77 C581.95,251.31 575.65,252.72 568.50,253.92 ZM 335.33 320.66 C329.08,323.06 327.00,323.45 327.00,322.23 C327.00,321.81 329.59,320.47 332.75,319.25 C340.21,316.38 340.44,316.33 340.83,317.46 C341.01,317.99 338.54,319.43 335.33,320.66 Z" class="logo-dark"/>
<path d="M 322.18 595.75 C318.30,591.76 315.14,588.12 315.17,587.65 C315.19,587.18 313.42,584.93 311.24,582.65 C306.66,577.87 289.81,556.78 282.36,546.50 C276.56,538.50 271.02,530.34 265.70,521.94 C275.42,537.11 286.22,551.96 298.97,567.97 C311.37,583.53 333.30,606.00 336.10,606.00 C337.04,606.00 339.54,605.14 341.66,604.09 C343.77,603.03 351.58,599.36 359.00,595.94 C373.95,589.03 395.27,578.46 411.23,570.16 C396.67,577.91 379.71,586.31 360.00,595.53 C353.12,598.74 346.87,601.93 346.11,602.61 C343.21,605.19 350.84,602.46 366.58,595.31 C362.67,597.13 358.99,598.83 355.82,600.28 L 335.14 609.71 L 329.82 605.52 C322.03,599.38 311.74,588.52 300.82,575.33 C311.63,587.93 326.32,603.00 328.08,603.00 C328.71,603.00 326.06,599.74 322.18,595.75 ZM 524.21 492.07 C525.77,490.54 526.77,489.43 527.09,488.84 C527.93,487.26 527.62,486.20 525.52,483.44 C524.08,481.55 522.42,480.00 521.83,480.00 C520.69,480.00 522.48,482.70 524.86,484.57 C526.50,485.86 514.31,497.34 497.97,510.92 C501.50,507.96 504.92,505.01 508.20,502.10 C523.59,488.43 526.22,485.41 523.58,484.39 C521.58,483.63 514.60,473.06 515.51,472.18 C516.37,471.35 529.00,484.90 529.00,486.66 C529.00,487.22 527.24,489.17 524.21,492.07 ZM 187.91 312.70 C186.45,304.46 184.83,292.61 184.26,284.80 C183.81,278.56 183.88,278.09 185.96,277.64 C184.34,278.04 184.02,278.83 184.10,281.77 C184.18,284.85 184.32,285.08 184.87,283.09 C185.13,282.16 185.65,281.33 186.40,280.61 C186.36,282.50 186.97,288.70 187.93,296.31 C187.13,291.34 186.72,290.88 185.99,291.61 C185.47,292.13 185.96,298.79 187.20,307.80 C187.45,309.61 187.68,311.24 187.91,312.70 ZM 584.75 251.44 C582.26,251.72 577.37,252.43 572.46,253.22 C577.84,252.22 582.05,251.21 582.50,250.77 C583.27,250.02 579.48,250.15 573.96,250.88 C575.95,250.50 577.60,250.14 578.40,249.89 C582.12,248.75 591.00,248.73 591.00,249.87 C591.00,250.35 588.19,251.06 584.75,251.44 ZM 246.00 404.25 C244.83,405.71 243.65,406.00 240.48,406.00 C238.01,406.00 236.00,405.66 236.00,405.25 C236.00,404.83 237.16,401.34 238.57,397.50 C238.82,396.82 239.09,396.06 239.39,395.24 C237.36,401.21 236.88,403.22 237.22,403.56 C237.43,403.76 239.49,404.16 241.82,404.46 C244.15,404.75 245.26,404.78 246.00,404.25 ZM 526.09 401.40 C526.38,401.61 526.61,401.86 526.81,402.14 C527.56,403.22 529.32,404.00 530.97,404.00 C532.55,404.00 533.99,404.47 534.18,405.03 C534.27,405.31 534.45,405.45 534.70,405.47 C533.66,405.79 532.36,406.00 531.22,406.00 C528.40,406.00 527.64,405.52 526.73,403.11 ZM 520.19 229.90 C520.56,229.70 521.11,229.36 521.77,228.94 C520.79,229.63 519.89,230.26 519.21,230.73 C515.40,233.35 514.99,233.45 515.04,231.75 C515.07,230.89 516.30,229.61 521.08,226.17 C518.45,228.13 517.89,228.84 517.58,229.65 C516.95,231.29 517.50,231.34 520.19,229.90 ZM 478.51 526.54 C468.45,534.33 458.23,541.84 449.50,547.67 C446.48,549.69 443.27,551.75 439.86,553.85 C452.24,545.92 465.61,536.45 478.51,526.54 ZM 231.88 466.56 C225.05,452.50 220.00,440.87 220.00,438.37 C220.00,440.29 225.20,452.48 231.88,466.56 ZM 250.31 399.72 C252.14,399.32 255.23,399.32 260.98,399.39 C264.79,399.43 267.08,399.49 268.49,399.70 C267.01,399.50 264.52,399.46 260.26,399.43 C256.01,399.40 252.13,399.53 250.31,399.72 ZM 417.08 570.77 C429.44,564.19 439.74,558.05 449.71,551.39 C439.18,558.48 429.07,564.45 417.08,570.77 ZM 188.87 279.00 C189.83,278.56 190.94,278.21 192.20,277.94 C191.77,278.07 191.45,278.21 191.31,278.35 C190.96,278.71 189.87,279.00 188.89,279.00 ZM 265.40 527.09 C262.09,522.00 258.93,516.95 255.99,512.00 C254.87,510.12 253.71,508.11 252.52,506.01 C256.64,513.14 260.94,520.18 265.40,527.09 ZM 422.31 275.96 C418.93,280.54 415.98,285.62 413.63,290.88 C414.13,289.70 414.65,288.56 415.18,287.49 C417.03,283.74 419.56,279.67 422.31,275.96 ZM 502.40 402.64 C503.33,401.58 504.00,400.59 504.00,400.21 C504.00,399.78 507.72,399.59 512.62,399.73 C507.53,399.62 504.31,399.86 504.10,400.39 C503.94,400.79 503.25,401.69 502.40,402.64 ZM 280.23 405.01 L 280.60 405.01 L 278.18 405.29 C277.38,405.38 276.66,405.43 276.01,405.45 C277.20,405.21 278.95,405.02 280.23,405.01 ZM 555.77 254.16 C557.98,253.63 560.82,253.06 564.09,252.51 C563.89,252.55 563.70,252.59 563.50,252.63 C560.90,253.15 557.96,253.74 555.77,254.16 ZM 245.60 268.80 C271.73,263.99 299.37,258.64 306.50,256.83 C299.12,258.70 271.59,264.03 245.60,268.80 ZM 247.15 402.57 L 247.18 402.51 C247.68,401.42 248.09,400.69 248.94,400.21 C248.50,400.68 247.82,401.58 247.15,402.57 ZM 270.29 400.34 C270.61,400.63 270.75,401.00 270.84,401.50 C271.08,402.80 271.52,403.82 272.12,404.54 C271.39,403.93 271.00,403.00 270.81,401.68 C270.73,401.09 270.62,400.66 270.29,400.34 ZM 225.12 305.42 C225.63,305.09 225.75,304.34 225.44,302.94 C225.52,303.16 225.61,303.40 225.71,303.65 C225.94,304.28 225.68,305.08 225.13,305.42 C225.13,305.42 225.13,305.42 225.12,305.42 ZM 493.65 518.30 C499.70,513.39 505.53,508.55 510.58,504.25 C505.50,508.59 499.71,513.41 493.65,518.30 ZM 408.29 308.09 C407.79,310.74 407.43,313.21 407.22,315.32 C407.37,313.21 407.74,310.74 408.29,308.09 ZM 224.46 299.79 C224.40,299.64 224.35,299.49 224.29,299.33 C224.19,299.06 224.35,298.81 224.76,298.59 C224.70,298.65 224.64,298.71 224.60,298.78 C224.45,299.04 224.40,299.36 224.46,299.79 ZM 529.55 223.40 C530.85,222.46 532.01,221.66 532.60,221.28 C533.65,220.61 536.75,218.50 539.50,216.61 C536.75,218.50 533.66,220.61 532.63,221.28 C532.03,221.67 530.87,222.48 529.55,223.40 ZM 407.47 322.05 C407.53,322.16 407.59,322.26 407.67,322.33 C407.73,322.40 407.92,322.46 408.21,322.52 L 407.50 322.50 ZM 423.47 323.00 L 425.77 323.00 L 425.76 323.07 ZM 501.40 403.69 C499.93,405.16 498.08,405.94 496.28,405.95 C498.08,405.93 499.94,405.12 501.49,403.60 C501.46,403.63 501.43,403.66 501.40,403.69 ZM 429.41 252.16 C429.45,252.27 429.49,252.38 429.53,252.50 C429.79,253.32 430.30,254.79 430.66,255.75 C431.02,256.71 431.23,258.06 431.12,258.74 C431.23,258.06 430.98,256.60 430.56,255.50 C430.15,254.40 429.64,252.94 429.44,252.25 ZM 249.35 366.99 C249.93,365.30 250.43,363.84 250.81,362.71 L 252.41 357.92 L 250.82 362.71 C250.53,363.57 250.02,365.08 249.35,366.99 ZM 551.65 256.72 C551.22,256.66 550.87,256.54 550.69,256.36 C550.63,256.30 550.61,256.24 550.61,256.18 C550.62,256.19 550.62,256.20 550.63,256.21 C550.79,256.47 551.17,256.64 551.65,256.72 ZM 424.76 251.50 C422.15,252.02 418.06,253.11 411.58,254.90 C418.08,253.10 422.16,252.01 424.76,251.50 ZM 426.62 316.81 C427.53,310.61 428.76,305.46 430.51,300.91 C428.76,305.45 427.53,310.60 426.62,316.81 ZM 224.24 304.82 C223.75,304.10 223.22,302.83 222.78,301.27 C223.21,302.81 223.75,304.09 224.24,304.82 ZM 536.91 403.88 C536.80,404.28 536.58,404.53 536.29,404.75 C536.27,404.76 536.26,404.77 536.24,404.78 C536.56,404.55 536.79,404.29 536.91,403.88 ZM 554.62 256.36 C554.08,256.47 553.68,256.55 553.47,256.61 C553.37,256.63 553.26,256.65 553.16,256.67 C553.23,256.66 553.29,256.64 553.36,256.63 C553.58,256.57 554.02,256.48 554.62,256.36 ZM 282.87 404.75 L 280.32 397.75 L 282.87 404.75 L 282.87 404.75 ZM 190.28 322.12 C190.28,322.11 190.29,322.11 190.30,322.10 C190.29,322.11 190.28,322.11 190.28,322.12 Z" class="logo-grey"/>
<path d="M 396.00 581.37 C434.85,562.51 451.86,551.63 490.00,521.23 C510.50,504.88 529.00,488.48 529.00,486.66 C529.00,484.90 516.37,471.35 515.51,472.18 C514.60,473.06 521.58,483.63 523.58,484.39 C526.22,485.41 523.59,488.43 508.20,502.10 C484.92,522.78 454.50,545.29 430.08,559.92 C419.07,566.51 381.69,585.45 359.00,595.94 C351.58,599.36 343.77,603.03 341.66,604.09 C339.54,605.14 337.04,606.00 336.10,606.00 C333.30,606.00 311.37,583.53 298.97,567.97 C267.94,529.01 248.52,496.92 227.90,450.52 C222.57,438.52 220.00,434.57 220.00,438.37 C220.00,443.55 241.71,487.97 255.99,512.00 C277.59,548.35 311.01,590.69 329.82,605.52 L 335.14 609.71 L 355.82 600.28 C367.19,595.09 385.27,586.58 396.00,581.37 ZM 451.74 601.89 C457.11,600.18 465.51,597.22 470.42,595.32 C496.88,585.03 522.99,567.59 520.08,562.15 C518.90,559.94 511.93,555.01 509.95,554.98 C509.15,554.97 512.05,553.05 516.39,550.73 C524.93,546.16 536.13,536.41 542.84,527.71 C551.15,516.93 563.66,488.26 561.14,485.74 C560.57,485.17 559.74,486.30 558.97,488.66 C555.27,500.08 546.60,516.92 539.49,526.50 C529.81,539.54 520.07,547.08 505.04,553.14 C501.44,554.59 498.60,556.16 498.72,556.64 C498.85,557.11 501.69,557.77 505.04,558.10 C511.26,558.72 516.50,561.45 516.50,564.06 C516.50,566.15 505.54,574.49 495.02,580.40 C482.64,587.35 471.79,592.16 454.24,598.50 C446.40,601.33 440.29,603.95 440.66,604.33 C441.55,605.22 440.70,605.41 451.74,601.89 ZM 424.00 534.43 C435.02,532.75 442.41,529.47 457.18,519.71 C472.74,509.42 486.37,497.53 520.31,464.69 C542.91,442.82 546.87,438.53 545.63,437.29 C545.33,437.00 534.92,446.38 522.49,458.13 C482.67,495.77 474.71,502.98 464.17,510.96 C453.77,518.83 436.68,529.00 433.86,529.00 C431.02,529.00 422.60,522.56 411.34,511.76 C405.17,505.84 399.82,501.00 399.46,501.00 C399.10,501.00 394.60,503.26 389.45,506.03 C373.40,514.65 367.99,516.34 356.71,516.27 C347.00,516.21 342.39,515.12 338.67,512.03 C329.37,504.29 324.68,499.74 316.49,490.45 C304.55,476.93 296.18,465.66 284.00,446.72 C278.94,438.84 276.46,436.21 275.24,437.42 C273.72,438.95 295.08,470.02 309.58,487.38 C327.74,509.14 341.79,520.72 358.90,528.04 C378.90,536.59 397.69,538.43 424.00,534.43 ZM 474.65 405.66 C474.74,405.57 473.51,401.67 471.93,397.00 C467.52,384.02 468.23,372.33 474.13,360.75 L 476.04 357.00 L 470.68 357.00 C465.81,357.00 465.21,357.25 464.05,359.75 C459.41,369.80 458.62,384.89 462.05,397.70 C463.18,401.92 464.36,405.78 464.67,406.28 C465.10,406.98 473.89,406.43 474.65,405.66 ZM 591.21 403.00 C596.57,392.03 597.25,377.53 593.03,364.25 L 590.72 357.00 L 585.43 357.00 L 580.14 357.00 L 582.75 363.25 C584.84,368.26 585.45,371.59 585.78,380.02 C586.16,389.36 585.91,391.40 583.60,398.29 C582.17,402.55 581.00,406.28 581.00,406.58 C581.00,406.87 582.91,406.98 585.25,406.81 C588.99,406.54 589.71,406.08 591.21,403.00 ZM 246.70 403.25 C247.67,401.74 248.81,400.24 249.24,399.93 C249.67,399.62 254.63,399.40 260.26,399.43 C269.99,399.50 270.52,399.61 270.81,401.68 C271.28,405.00 273.06,405.87 278.18,405.29 L 282.87 404.75 L 280.27 397.63 C278.84,393.71 275.12,383.30 272.00,374.50 L 266.33 358.50 L 259.37 358.21 L 252.41 357.92 L 250.81 362.71 C248.46,369.72 241.53,389.42 238.57,397.50 C237.16,401.34 236.00,404.83 236.00,405.25 C236.00,405.66 238.01,406.00 240.48,406.00 C244.27,406.00 245.22,405.58 246.70,403.25 ZM 376.90 402.55 C383.90,398.93 386.41,392.02 385.80,378.00 C385.32,366.96 383.80,363.28 378.33,359.89 C373.14,356.69 358.23,356.46 353.18,359.50 C346.89,363.29 345.50,367.01 345.50,380.00 C345.50,389.12 345.88,392.26 347.32,395.17 C351.96,404.49 366.25,408.06 376.90,402.55 ZM 412.58 401.70 L 413.66 398.55 L 422.08 398.51 C428.82,398.47 431.35,398.01 434.75,396.21 C447.03,389.71 448.99,369.82 438.11,362.08 C436.51,360.94 434.50,360.00 433.65,360.00 C432.81,360.00 431.84,359.55 431.50,359.00 C431.14,358.41 425.16,358.00 416.94,358.00 L 403.00 358.00 L 403.00 381.44 L 403.00 404.88 L 406.75 405.19 C411.31,405.57 411.24,405.61 412.58,401.70 ZM 501.40 403.69 C502.67,402.42 503.88,400.94 504.10,400.39 C504.35,399.78 508.58,399.55 515.07,399.80 L 525.64 400.21 L 526.73 403.11 C527.64,405.52 528.40,406.00 531.22,406.00 C533.09,406.00 535.37,405.44 536.29,404.75 C537.81,403.61 537.28,401.68 530.38,383.00 C526.22,371.73 522.40,361.47 521.90,360.20 C521.07,358.08 520.49,357.93 514.32,358.20 L 507.64 358.50 L 503.73 369.50 C491.40,404.11 491.43,404.03 493.00,405.02 C495.56,406.64 498.99,406.10 501.40,403.69 ZM 314.77 386.25 L 315.05 368.00 L 322.52 368.00 L 330.00 368.00 L 330.00 363.00 L 330.00 358.00 L 309.45 358.00 L 288.89 358.00 L 289.20 362.75 L 289.50 367.50 L 297.25 367.79 L 305.00 368.08 L 305.00 386.60 L 305.00 405.11 L 309.75 404.80 L 314.50 404.50 L 314.77 386.25 ZM 563.00 381.50 L 563.00 358.00 L 558.00 358.00 L 553.00 358.00 L 553.00 380.83 C553.00,393.39 553.30,403.97 553.67,404.33 C554.03,404.70 556.28,405.00 558.67,405.00 L 563.00 405.00 L 563.00 381.50 ZM 188.56 301.09 C187.06,290.09 186.12,280.62 186.47,280.04 C186.83,279.47 187.92,279.00 188.89,279.00 C189.87,279.00 190.96,278.71 191.31,278.35 C191.67,278.00 193.21,277.60 194.73,277.47 C204.34,276.67 292.36,260.41 306.50,256.83 C310.90,255.72 320.12,253.55 327.00,252.02 C340.86,248.93 371.67,241.16 382.46,238.04 C386.29,236.93 389.74,236.35 390.13,236.76 C391.42,238.11 395.06,255.34 394.23,256.17 C393.78,256.62 384.20,259.07 372.95,261.62 C348.33,267.19 346.86,267.51 340.50,268.84 C333.18,270.37 297.12,279.62 285.51,282.95 C270.44,287.28 251.53,291.66 242.00,293.02 C237.32,293.69 230.78,294.75 227.46,295.37 L 221.43 296.50 L 222.78 301.27 C223.54,303.96 224.57,305.77 225.13,305.42 C225.68,305.08 225.94,304.28 225.71,303.65 C223.62,298.10 223.56,298.19 229.71,297.52 C241.76,296.20 263.36,291.65 287.50,285.33 C318.45,277.24 349.05,269.75 376.50,263.55 C388.05,260.94 403.84,257.05 411.58,254.90 C426.89,250.66 428.87,250.36 429.44,252.25 C429.64,252.94 430.15,254.40 430.56,255.50 C430.98,256.60 431.23,258.06 431.12,258.74 C431.01,259.42 431.35,260.79 431.88,261.78 C432.67,263.25 431.60,265.00 426.17,271.16 C422.00,275.90 417.87,282.03 415.18,287.49 C410.49,296.98 406.71,311.68 407.20,318.43 L 407.50 322.50 L 416.63 322.79 L 425.76 323.07 L 426.41 318.29 C428.57,302.39 432.58,293.31 441.56,284.01 C456.68,268.35 476.37,264.40 496.50,272.99 C504.16,276.26 514.59,283.72 520.15,289.92 C527.79,298.42 533.95,311.94 533.99,320.28 L 534.00 323.07 L 544.25 322.78 L 554.50 322.50 L 554.28 317.27 C553.55,299.60 539.67,276.47 522.89,264.97 C509.67,255.90 499.71,251.83 485.94,249.88 C470.80,247.74 454.97,251.03 442.00,259.00 L 435.54 262.97 L 434.41 260.74 C433.79,259.51 433.00,256.08 432.67,253.11 C432.34,250.15 431.85,247.52 431.60,247.27 C431.11,246.78 423.88,248.41 410.50,252.03 C396.12,255.91 397.75,256.65 395.01,245.05 C393.70,239.49 392.10,234.50 391.47,233.97 C390.70,233.34 386.76,234.00 379.90,235.92 C368.93,239.00 316.37,252.00 307.00,253.95 C303.98,254.58 299.59,255.53 297.25,256.05 C289.18,257.85 284.48,258.84 279.00,259.89 C275.98,260.47 271.25,261.38 268.50,261.92 C263.98,262.80 258.45,263.79 231.00,268.62 C217.73,270.96 202.12,273.99 195.00,275.62 C191.43,276.43 187.44,277.32 186.14,277.60 C183.88,278.07 183.80,278.38 184.26,284.80 C185.22,298.12 189.27,323.13 190.30,322.10 C190.96,321.44 190.38,314.38 188.56,301.09 ZM 335.33 320.66 C338.54,319.43 341.01,317.99 340.83,317.46 C340.44,316.33 340.21,316.38 332.75,319.25 C329.59,320.47 327.00,321.81 327.00,322.23 C327.00,323.45 329.08,323.06 335.33,320.66 ZM 567.00 254.13 C573.33,253.04 581.31,251.83 584.75,251.44 C588.19,251.06 591.00,250.35 591.00,249.87 C591.00,248.73 582.12,248.75 578.40,249.89 C576.80,250.38 571.90,251.32 567.50,251.97 C556.97,253.55 549.76,255.43 550.69,256.36 C551.10,256.77 552.35,256.88 553.47,256.61 C554.59,256.33 560.67,255.22 567.00,254.13 ZM 519.21 230.73 C521.02,229.48 524.36,227.11 526.63,225.48 C528.90,223.84 531.60,221.95 532.63,221.28 C533.66,220.61 536.75,218.50 539.50,216.61 C546.82,211.55 561.84,202.23 575.33,194.38 C582.70,190.09 586.46,187.39 585.31,187.21 C582.81,186.82 560.11,199.89 540.00,213.31 C518.97,227.35 515.09,230.21 515.04,231.75 C514.99,233.45 515.40,233.35 519.21,230.73 ZM 492.60 209.06 C493.09,208.00 495.30,205.18 497.50,202.81 C499.70,200.44 504.73,194.62 508.69,189.88 C512.64,185.15 516.47,180.65 517.19,179.88 C517.92,179.12 522.11,174.00 526.51,168.50 C530.90,163.01 535.74,157.16 537.25,155.50 C540.31,152.15 540.66,151.00 538.61,151.00 C537.40,151.00 532.03,157.25 506.00,188.93 C502.98,192.62 497.91,198.72 494.75,202.51 C491.59,206.29 489.00,209.75 489.00,210.19 C489.00,211.80 491.72,210.95 492.60,209.06 ZM 253.39 388.58 C252.53,386.33 257.36,371.50 258.96,371.50 C260.56,371.50 266.37,386.59 265.57,388.67 C264.84,390.58 254.13,390.50 253.39,388.58 ZM 362.28 395.31 C361.07,395.07 358.93,393.51 357.53,391.86 C355.26,389.15 355.00,387.98 355.00,380.38 C355.00,372.72 355.23,371.67 357.45,369.45 C361.00,365.91 368.63,365.97 372.92,369.59 C375.93,372.12 376.00,372.39 376.00,380.90 C376.00,389.13 375.84,389.77 373.25,392.21 C370.41,394.87 366.16,396.07 362.28,395.31 ZM 413.67 388.33 C413.30,387.97 413.00,383.20 413.00,377.73 L 413.00 367.79 L 421.60 368.15 C429.76,368.48 430.31,368.65 432.59,371.50 C436.09,375.87 435.83,380.98 431.90,385.47 C428.88,388.90 428.59,389.00 421.56,389.00 C417.59,389.00 414.03,388.70 413.67,388.33 ZM 509.25 389.34 C507.55,388.65 507.66,387.37 510.08,379.92 C512.62,372.07 514.34,369.90 515.82,372.66 C517.75,376.26 521.82,388.85 521.25,389.42 C520.55,390.12 511.02,390.05 509.25,389.34 Z" class="logo-white"/>
</g>
</svg>